<?xml version="1.0" encoding="UTF-8" standalone="no"?>
<!DOCTYPE svg PUBLIC "-//W3C//DTD SVG 1.0//EN"
 "http://www.w3.org/TR/2001/REC-SVG-20010904/DTD/svg10.dtd" [
 <!ATTLIST svg xmlns:xlink CDATA #FIXED "http://www.w3.org/1999/xlink">
]>
<!-- Generated by Graphviz version 2.12 (Mon Dec  4 22:04:37 UTC 2006)
     For user: Bill Gates -->
<!-- Title: byz Pages: 1 -->
<svg width="4.14in" height="7.18in"
 xmlns="http://www.w3.org/2000/svg" xmlns:xlink="http://www.w3.org/1999/xlink">
<g id="graph0" class="graph" transform="scale(1.33333 1.33333) rotate(0) translate(4 513)">
<title>byz</title>
<polygon style="fill:white;stroke:white;" points="-4,4 -4,-513 294,-513 294,4 -4,4"/>
<!-- General -->
<g id="node1" class="node"><title>General</title>
<text text-anchor="middle" x="21" y="-251" style="font-family:Nimbus Roman No9 L;font-weight:regular;font-size:6.48pt;">General</text>
</g>
<!-- {0,1,0} -->
<g id="node3" class="node"><title>{0,1,0}</title>
<text text-anchor="middle" x="98" y="-251" style="font-family:Nimbus Roman No9 L;font-weight:regular;font-size:6.48pt;">{0,1,0}</text>
</g>
<!-- General&#45;&gt;{0,1,0} -->
<g id="edge2" class="edge"><title>General&#45;&gt;{0,1,0}</title>
<path style="fill:none;stroke:black;stroke-dasharray:1,5;" d="M42,-254C52,-254 65,-254 75,-254"/>
<polygon style="fill:black;stroke:black;" points="75.5,-254.875 78,-254 75.5,-253.125 75.5,-254.875"/>
</g>
<!-- {0,12,0} -->
<g id="node5" class="node"><title>{0,12,0}</title>
<text text-anchor="middle" x="178" y="-455" style="font-family:Nimbus Roman No9 L;font-weight:regular;font-size:6.48pt;">{0,12,0}</text>
</g>
<!-- {0,1,0}&#45;&gt;{0,12,0} -->
<g id="edge4" class="edge"><title>{0,1,0}&#45;&gt;{0,12,0}</title>
<path style="fill:none;stroke:black;" d="M101,-262C114,-294 160,-411 174,-448"/>
<polygon style="fill:black;stroke:black;" points="173.099,-448.155 175,-450 174.665,-447.373 173.099,-448.155"/>
</g>
<!-- {0,13,0} -->
<g id="node17" class="node"><title>{0,13,0}</title>
<text text-anchor="middle" x="178" y="-370" style="font-family:Nimbus Roman No9 L;font-weight:regular;font-size:6.48pt;">{0,13,0}</text>
</g>
<!-- {0,1,0}&#45;&gt;{0,13,0} -->
<g id="edge16" class="edge"><title>{0,1,0}&#45;&gt;{0,13,0}</title>
<path style="fill:none;stroke:black;" d="M103,-262C118,-283 156,-339 171,-363"/>
<polygon style="fill:black;stroke:black;" points="170.099,-363.155 172,-365 171.665,-362.373 170.099,-363.155"/>
</g>
<!-- {0,14,0} -->
<g id="node29" class="node"><title>{0,14,0}</title>
<text text-anchor="middle" x="178" y="-285" style="font-family:Nimbus Roman No9 L;font-weight:regular;font-size:6.48pt;">{0,14,0}</text>
</g>
<!-- {0,1,0}&#45;&gt;{0,14,0} -->
<g id="edge28" class="edge"><title>{0,1,0}&#45;&gt;{0,14,0}</title>
<path style="fill:none;stroke:black;" d="M117,-262C129,-267 145,-274 157,-279"/>
<polygon style="fill:black;stroke:black;" points="156.373,-279.665 159,-280 157.155,-278.099 156.373,-279.665"/>
</g>
<!-- {0,15,0} -->
<g id="node41" class="node"><title>{0,15,0}</title>
<text text-anchor="middle" x="178" y="-217" style="font-family:Nimbus Roman No9 L;font-weight:regular;font-size:6.48pt;">{0,15,0}</text>
</g>
<!-- {0,1,0}&#45;&gt;{0,15,0} -->
<g id="edge40" class="edge"><title>{0,1,0}&#45;&gt;{0,15,0}</title>
<path style="fill:none;stroke:black;" d="M117,-246C129,-241 145,-234 157,-229"/>
<polygon style="fill:black;stroke:black;" points="157.155,-229.901 159,-228 156.373,-228.335 157.155,-229.901"/>
</g>
<!-- {X,16,X} -->
<g id="node53" class="node"><title>{X,16,X}</title>
<text text-anchor="middle" x="178" y="-133" style="font-family:Nimbus Roman No9 L;font-weight:regular;font-size:6.48pt;">{X,16,X}</text>
</g>
<!-- {0,1,0}&#45;&gt;{X,16,X} -->
<g id="edge52" class="edge"><title>{0,1,0}&#45;&gt;{X,16,X}</title>
<path style="fill:none;stroke:black;" d="M103,-246C118,-225 156,-170 171,-146"/>
<polygon style="fill:black;stroke:black;" points="171.665,-146.627 172,-144 170.099,-145.845 171.665,-146.627"/>
</g>
<!-- {X,17,X} -->
<g id="node65" class="node"><title>{X,17,X}</title>
<text text-anchor="middle" x="178" y="-48" style="font-family:Nimbus Roman No9 L;font-weight:regular;font-size:6.48pt;">{X,17,X}</text>
</g>
<!-- {0,1,0}&#45;&gt;{X,17,X} -->
<g id="edge64" class="edge"><title>{0,1,0}&#45;&gt;{X,17,X}</title>
<path style="fill:none;stroke:black;" d="M101,-246C114,-214 160,-98 174,-61"/>
<polygon style="fill:black;stroke:black;" points="174.665,-61.6274 175,-59 173.099,-60.8447 174.665,-61.6274"/>
</g>
<!-- {0,123,0} -->
<g id="node7" class="node"><title>{0,123,0}</title>
<text text-anchor="middle" x="264" y="-498" style="font-family:Nimbus Roman No9 L;font-weight:regular;font-size:6.48pt;">{0,123,0}</text>
</g>
<!-- {0,12,0}&#45;&gt;{0,123,0} -->
<g id="edge6" class="edge"><title>{0,12,0}&#45;&gt;{0,123,0}</title>
<path style="fill:none;stroke:black;" d="M194,-466C206,-472 223,-481 238,-489 240,-490 242,-491 244,-492"/>
<polygon style="fill:black;stroke:black;" points="244.352,-493.039 247,-493 244.905,-491.379 244.352,-493.039"/>
</g>
<!-- {0,124,0} -->
<g id="node9" class="node"><title>{0,124,0}</title>
<text text-anchor="middle" x="264" y="-481" style="font-family:Nimbus Roman No9 L;font-weight:regular;font-size:6.48pt;">{0,124,0}</text>
</g>
<!-- {0,12,0}&#45;&gt;{0,124,0} -->
<g id="edge8" class="edge"><title>{0,12,0}&#45;&gt;{0,124,0}</title>
<path style="fill:none;stroke:black;" d="M200,-465C211,-468 225,-472 236,-475"/>
<polygon style="fill:black;stroke:black;" points="236.352,-476.039 239,-476 236.905,-474.379 236.352,-476.039"/>
</g>
<!-- {0,125,0} -->
<g id="node11" class="node"><title>{0,125,0}</title>
<text text-anchor="middle" x="264" y="-464" style="font-family:Nimbus Roman No9 L;font-weight:regular;font-size:6.48pt;">{0,125,0}</text>
</g>
<!-- {0,12,0}&#45;&gt;{0,125,0} -->
<g id="edge10" class="edge"><title>{0,12,0}&#45;&gt;{0,125,0}</title>
<path style="fill:none;stroke:black;" d="M200,-460C211,-461 225,-463 236,-464"/>
<polygon style="fill:black;stroke:black;" points="236.5,-464.875 239,-464 236.5,-463.125 236.5,-464.875"/>
</g>
<!-- {X,126,X} -->
<g id="node13" class="node"><title>{X,126,X}</title>
<text text-anchor="middle" x="264" y="-447" style="font-family:Nimbus Roman No9 L;font-weight:regular;font-size:6.48pt;">{X,126,X}</text>
</g>
<!-- {0,12,0}&#45;&gt;{X,126,X} -->
<g id="edge12" class="edge"><title>{0,12,0}&#45;&gt;{X,126,X}</title>
<path style="fill:none;stroke:black;" d="M200,-456C211,-455 224,-454 235,-453"/>
<polygon style="fill:black;stroke:black;" points="235.5,-453.875 238,-453 235.5,-452.125 235.5,-453.875"/>
</g>
<!-- {X,127,X} -->
<g id="node15" class="node"><title>{X,127,X}</title>
<text text-anchor="middle" x="264" y="-430" style="font-family:Nimbus Roman No9 L;font-weight:regular;font-size:6.48pt;">{X,127,X}</text>
</g>
<!-- {0,12,0}&#45;&gt;{X,127,X} -->
<g id="edge14" class="edge"><title>{0,12,0}&#45;&gt;{X,127,X}</title>
<path style="fill:none;stroke:black;" d="M200,-452C211,-448 224,-445 235,-441"/>
<polygon style="fill:black;stroke:black;" points="235.905,-441.621 238,-440 235.352,-439.961 235.905,-441.621"/>
</g>
<!-- {0,132,0} -->
<g id="node19" class="node"><title>{0,132,0}</title>
<text text-anchor="middle" x="264" y="-413" style="font-family:Nimbus Roman No9 L;font-weight:regular;font-size:6.48pt;">{0,132,0}</text>
</g>
<!-- {0,13,0}&#45;&gt;{0,132,0} -->
<g id="edge18" class="edge"><title>{0,13,0}&#45;&gt;{0,132,0}</title>
<path style="fill:none;stroke:black;" d="M194,-381C206,-387 223,-396 238,-404 240,-405 242,-406 244,-407"/>
<polygon style="fill:black;stroke:black;" points="244.352,-408.039 247,-408 244.905,-406.379 244.352,-408.039"/>
</g>
<!-- {0,134,0} -->
<g id="node21" class="node"><title>{0,134,0}</title>
<text text-anchor="middle" x="264" y="-396" style="font-family:Nimbus Roman No9 L;font-weight:regular;font-size:6.48pt;">{0,134,0}</text>
</g>
<!-- {0,13,0}&#45;&gt;{0,134,0} -->
<g id="edge20" class="edge"><title>{0,13,0}&#45;&gt;{0,134,0}</title>
<path style="fill:none;stroke:black;" d="M200,-380C211,-383 225,-387 236,-390"/>
<polygon style="fill:black;stroke:black;" points="236.352,-391.039 239,-391 236.905,-389.379 236.352,-391.039"/>
</g>
<!-- {0,135,0} -->
<g id="node23" class="node"><title>{0,135,0}</title>
<text text-anchor="middle" x="264" y="-379" style="font-family:Nimbus Roman No9 L;font-weight:regular;font-size:6.48pt;">{0,135,0}</text>
</g>
<!-- {0,13,0}&#45;&gt;{0,135,0} -->
<g id="edge22" class="edge"><title>{0,13,0}&#45;&gt;{0,135,0}</title>
<path style="fill:none;stroke:black;" d="M200,-375C211,-376 225,-378 236,-379"/>
<polygon style="fill:black;stroke:black;" points="236.5,-379.875 239,-379 236.5,-378.125 236.5,-379.875"/>
</g>
<!-- {X,136,X} -->
<g id="node25" class="node"><title>{X,136,X}</title>
<text text-anchor="middle" x="264" y="-362" style="font-family:Nimbus Roman No9 L;font-weight:regular;font-size:6.48pt;">{X,136,X}</text>
</g>
<!-- {0,13,0}&#45;&gt;{X,136,X} -->
<g id="edge24" class="edge"><title>{0,13,0}&#45;&gt;{X,136,X}</title>
<path style="fill:none;stroke:black;" d="M200,-371C211,-370 224,-369 235,-368"/>
<polygon style="fill:black;stroke:black;" points="235.5,-368.875 238,-368 235.5,-367.125 235.5,-368.875"/>
</g>
<!-- {X,137,X} -->
<g id="node27" class="node"><title>{X,137,X}</title>
<text text-anchor="middle" x="264" y="-345" style="font-family:Nimbus Roman No9 L;font-weight:regular;font-size:6.48pt;">{X,137,X}</text>
</g>
<!-- {0,13,0}&#45;&gt;{X,137,X} -->
<g id="edge26" class="edge"><title>{0,13,0}&#45;&gt;{X,137,X}</title>
<path style="fill:none;stroke:black;" d="M200,-367C211,-363 224,-360 235,-356"/>
<polygon style="fill:black;stroke:black;" points="235.905,-356.621 238,-355 235.352,-354.961 235.905,-356.621"/>
</g>
<!-- {0,142,0} -->
<g id="node31" class="node"><title>{0,142,0}</title>
<text text-anchor="middle" x="264" y="-328" style="font-family:Nimbus Roman No9 L;font-weight:regular;font-size:6.48pt;">{0,142,0}</text>
</g>
<!-- {0,14,0}&#45;&gt;{0,142,0} -->
<g id="edge30" class="edge"><title>{0,14,0}&#45;&gt;{0,142,0}</title>
<path style="fill:none;stroke:black;" d="M194,-296C206,-302 223,-311 238,-319 240,-320 242,-321 244,-322"/>
<polygon style="fill:black;stroke:black;" points="244.352,-323.039 247,-323 244.905,-321.379 244.352,-323.039"/>
</g>
<!-- {0,143,0} -->
<g id="node33" class="node"><title>{0,143,0}</title>
<text text-anchor="middle" x="264" y="-311" style="font-family:Nimbus Roman No9 L;font-weight:regular;font-size:6.48pt;">{0,143,0}</text>
</g>
<!-- {0,14,0}&#45;&gt;{0,143,0} -->
<g id="edge32" class="edge"><title>{0,14,0}&#45;&gt;{0,143,0}</title>
<path style="fill:none;stroke:black;" d="M200,-295C211,-298 225,-302 236,-305"/>
<polygon style="fill:black;stroke:black;" points="236.352,-306.039 239,-306 236.905,-304.379 236.352,-306.039"/>
</g>
<!-- {0,145,0} -->
<g id="node35" class="node"><title>{0,145,0}</title>
<text text-anchor="middle" x="264" y="-294" style="font-family:Nimbus Roman No9 L;font-weight:regular;font-size:6.48pt;">{0,145,0}</text>
</g>
<!-- {0,14,0}&#45;&gt;{0,145,0} -->
<g id="edge34" class="edge"><title>{0,14,0}&#45;&gt;{0,145,0}</title>
<path style="fill:none;stroke:black;" d="M200,-290C211,-291 225,-293 236,-294"/>
<polygon style="fill:black;stroke:black;" points="236.5,-294.875 239,-294 236.5,-293.125 236.5,-294.875"/>
</g>
<!-- {X,146,X} -->
<g id="node37" class="node"><title>{X,146,X}</title>
<text text-anchor="middle" x="264" y="-277" style="font-family:Nimbus Roman No9 L;font-weight:regular;font-size:6.48pt;">{X,146,X}</text>
</g>
<!-- {0,14,0}&#45;&gt;{X,146,X} -->
<g id="edge36" class="edge"><title>{0,14,0}&#45;&gt;{X,146,X}</title>
<path style="fill:none;stroke:black;" d="M200,-286C211,-285 224,-284 235,-283"/>
<polygon style="fill:black;stroke:black;" points="235.5,-283.875 238,-283 235.5,-282.125 235.5,-283.875"/>
</g>
<!-- {X,147,X} -->
<g id="node39" class="node"><title>{X,147,X}</title>
<text text-anchor="middle" x="264" y="-260" style="font-family:Nimbus Roman No9 L;font-weight:regular;font-size:6.48pt;">{X,147,X}</text>
</g>
<!-- {0,14,0}&#45;&gt;{X,147,X} -->
<g id="edge38" class="edge"><title>{0,14,0}&#45;&gt;{X,147,X}</title>
<path style="fill:none;stroke:black;" d="M200,-282C211,-278 224,-275 235,-271"/>
<polygon style="fill:black;stroke:black;" points="235.905,-271.621 238,-270 235.352,-269.961 235.905,-271.621"/>
</g>
<!-- {0,152,0} -->
<g id="node43" class="node"><title>{0,152,0}</title>
<text text-anchor="middle" x="264" y="-243" style="font-family:Nimbus Roman No9 L;font-weight:regular;font-size:6.48pt;">{0,152,0}</text>
</g>
<!-- {0,15,0}&#45;&gt;{0,152,0} -->
<g id="edge42" class="edge"><title>{0,15,0}&#45;&gt;{0,152,0}</title>
<path style="fill:none;stroke:black;" d="M200,-227C211,-230 225,-234 236,-237"/>
<polygon style="fill:black;stroke:black;" points="236.352,-238.039 239,-238 236.905,-236.379 236.352,-238.039"/>
</g>
<!-- {0,153,0} -->
<g id="node45" class="node"><title>{0,153,0}</title>
<text text-anchor="middle" x="264" y="-226" style="font-family:Nimbus Roman No9 L;font-weight:regular;font-size:6.48pt;">{0,153,0}</text>
</g>
<!-- {0,15,0}&#45;&gt;{0,153,0} -->
<g id="edge44" class="edge"><title>{0,15,0}&#45;&gt;{0,153,0}</title>
<path style="fill:none;stroke:black;" d="M200,-222C211,-223 225,-225 236,-226"/>
<polygon style="fill:black;stroke:black;" points="236.5,-226.875 239,-226 236.5,-225.125 236.5,-226.875"/>
</g>
<!-- {0,154,0} -->
<g id="node47" class="node"><title>{0,154,0}</title>
<text text-anchor="middle" x="264" y="-209" style="font-family:Nimbus Roman No9 L;font-weight:regular;font-size:6.48pt;">{0,154,0}</text>
</g>
<!-- {0,15,0}&#45;&gt;{0,154,0} -->
<g id="edge46" class="edge"><title>{0,15,0}&#45;&gt;{0,154,0}</title>
<path style="fill:none;stroke:black;" d="M200,-218C211,-217 225,-216 236,-214"/>
<polygon style="fill:black;stroke:black;" points="236.5,-214.875 239,-214 236.5,-213.125 236.5,-214.875"/>
</g>
<!-- {X,156,X} -->
<g id="node49" class="node"><title>{X,156,X}</title>
<text text-anchor="middle" x="264" y="-192" style="font-family:Nimbus Roman No9 L;font-weight:regular;font-size:6.48pt;">{X,156,X}</text>
</g>
<!-- {0,15,0}&#45;&gt;{X,156,X} -->
<g id="edge48" class="edge"><title>{0,15,0}&#45;&gt;{X,156,X}</title>
<path style="fill:none;stroke:black;" d="M200,-214C211,-210 224,-207 235,-203"/>
<polygon style="fill:black;stroke:black;" points="235.905,-203.621 238,-202 235.352,-201.961 235.905,-203.621"/>
</g>
<!-- {X,157,X} -->
<g id="node51" class="node"><title>{X,157,X}</title>
<text text-anchor="middle" x="264" y="-175" style="font-family:Nimbus Roman No9 L;font-weight:regular;font-size:6.48pt;">{X,157,X}</text>
</g>
<!-- {0,15,0}&#45;&gt;{X,157,X} -->
<g id="edge50" class="edge"><title>{0,15,0}&#45;&gt;{X,157,X}</title>
<path style="fill:none;stroke:black;" d="M194,-212C206,-206 223,-197 238,-190 240,-189 242,-188 243,-187"/>
<polygon style="fill:black;stroke:black;" points="243.905,-187.621 246,-186 243.352,-185.961 243.905,-187.621"/>
</g>
<!-- {X,162,X} -->
<g id="node55" class="node"><title>{X,162,X}</title>
<text text-anchor="middle" x="264" y="-158" style="font-family:Nimbus Roman No9 L;font-weight:regular;font-size:6.48pt;">{X,162,X}</text>
</g>
<!-- {X,16,X}&#45;&gt;{X,162,X} -->
<g id="edge54" class="edge"><title>{X,16,X}&#45;&gt;{X,162,X}</title>
<path style="fill:none;stroke:black;" d="M202,-143C212,-146 225,-149 235,-152"/>
<polygon style="fill:black;stroke:black;" points="235.352,-153.039 238,-153 235.905,-151.379 235.352,-153.039"/>
</g>
<!-- {X,163,X} -->
<g id="node57" class="node"><title>{X,163,X}</title>
<text text-anchor="middle" x="264" y="-141" style="font-family:Nimbus Roman No9 L;font-weight:regular;font-size:6.48pt;">{X,163,X}</text>
</g>
<!-- {X,16,X}&#45;&gt;{X,163,X} -->
<g id="edge56" class="edge"><title>{X,16,X}&#45;&gt;{X,163,X}</title>
<path style="fill:none;stroke:black;" d="M202,-138C212,-139 225,-141 235,-142"/>
<polygon style="fill:black;stroke:black;" points="235.5,-142.875 238,-142 235.5,-141.125 235.5,-142.875"/>
</g>
<!-- {X,164,X} -->
<g id="node59" class="node"><title>{X,164,X}</title>
<text text-anchor="middle" x="264" y="-124" style="font-family:Nimbus Roman No9 L;font-weight:regular;font-size:6.48pt;">{X,164,X}</text>
</g>
<!-- {X,16,X}&#45;&gt;{X,164,X} -->
<g id="edge58" class="edge"><title>{X,16,X}&#45;&gt;{X,164,X}</title>
<path style="fill:none;stroke:black;" d="M202,-133C212,-132 225,-131 235,-130"/>
<polygon style="fill:black;stroke:black;" points="235.5,-130.875 238,-130 235.5,-129.125 235.5,-130.875"/>
</g>
<!-- {X,165,X} -->
<g id="node61" class="node"><title>{X,165,X}</title>
<text text-anchor="middle" x="264" y="-107" style="font-family:Nimbus Roman No9 L;font-weight:regular;font-size:6.48pt;">{X,165,X}</text>
</g>
<!-- {X,16,X}&#45;&gt;{X,165,X} -->
<g id="edge60" class="edge"><title>{X,16,X}&#45;&gt;{X,165,X}</title>
<path style="fill:none;stroke:black;" d="M202,-129C212,-125 225,-122 235,-119"/>
<polygon style="fill:black;stroke:black;" points="235.905,-119.621 238,-118 235.352,-117.961 235.905,-119.621"/>
</g>
<!-- {X,167,X} -->
<g id="node63" class="node"><title>{X,167,X}</title>
<text text-anchor="middle" x="264" y="-90" style="font-family:Nimbus Roman No9 L;font-weight:regular;font-size:6.48pt;">{X,167,X}</text>
</g>
<!-- {X,16,X}&#45;&gt;{X,167,X} -->
<g id="edge62" class="edge"><title>{X,16,X}&#45;&gt;{X,167,X}</title>
<path style="fill:none;stroke:black;" d="M193,-128C206,-122 223,-112 238,-105 240,-104 242,-103 243,-102"/>
<polygon style="fill:black;stroke:black;" points="243.905,-102.621 246,-101 243.352,-100.961 243.905,-102.621"/>
</g>
<!-- {X,172,X} -->
<g id="node67" class="node"><title>{X,172,X}</title>
<text text-anchor="middle" x="264" y="-73" style="font-family:Nimbus Roman No9 L;font-weight:regular;font-size:6.48pt;">{X,172,X}</text>
</g>
<!-- {X,17,X}&#45;&gt;{X,172,X} -->
<g id="edge66" class="edge"><title>{X,17,X}&#45;&gt;{X,172,X}</title>
<path style="fill:none;stroke:black;" d="M202,-58C212,-61 225,-64 235,-67"/>
<polygon style="fill:black;stroke:black;" points="235.352,-68.0395 238,-68 235.905,-66.3793 235.352,-68.0395"/>
</g>
<!-- {X,173,X} -->
<g id="node69" class="node"><title>{X,173,X}</title>
<text text-anchor="middle" x="264" y="-56" style="font-family:Nimbus Roman No9 L;font-weight:regular;font-size:6.48pt;">{X,173,X}</text>
</g>
<!-- {X,17,X}&#45;&gt;{X,173,X} -->
<g id="edge68" class="edge"><title>{X,17,X}&#45;&gt;{X,173,X}</title>
<path style="fill:none;stroke:black;" d="M202,-53C212,-54 225,-56 235,-57"/>
<polygon style="fill:black;stroke:black;" points="235.5,-57.8751 238,-57 235.5,-56.1251 235.5,-57.8751"/>
</g>
<!-- {X,174,X} -->
<g id="node71" class="node"><title>{X,174,X}</title>
<text text-anchor="middle" x="264" y="-39" style="font-family:Nimbus Roman No9 L;font-weight:regular;font-size:6.48pt;">{X,174,X}</text>
</g>
<!-- {X,17,X}&#45;&gt;{X,174,X} -->
<g id="edge70" class="edge"><title>{X,17,X}&#45;&gt;{X,174,X}</title>
<path style="fill:none;stroke:black;" d="M202,-48C212,-47 225,-46 235,-45"/>
<polygon style="fill:black;stroke:black;" points="235.5,-45.8751 238,-45 235.5,-44.1251 235.5,-45.8751"/>
</g>
<!-- {X,175,X} -->
<g id="node73" class="node"><title>{X,175,X}</title>
<text text-anchor="middle" x="264" y="-22" style="font-family:Nimbus Roman No9 L;font-weight:regular;font-size:6.48pt;">{X,175,X}</text>
</g>
<!-- {X,17,X}&#45;&gt;{X,175,X} -->
<g id="edge72" class="edge"><title>{X,17,X}&#45;&gt;{X,175,X}</title>
<path style="fill:none;stroke:black;" d="M202,-44C212,-40 225,-37 235,-34"/>
<polygon style="fill:black;stroke:black;" points="235.905,-34.6207 238,-33 235.352,-32.9605 235.905,-34.6207"/>
</g>
<!-- {X,176,X} -->
<g id="node75" class="node"><title>{X,176,X}</title>
<text text-anchor="middle" x="264" y="-5" style="font-family:Nimbus Roman No9 L;font-weight:regular;font-size:6.48pt;">{X,176,X}</text>
</g>
<!-- {X,17,X}&#45;&gt;{X,176,X} -->
<g id="edge74" class="edge"><title>{X,17,X}&#45;&gt;{X,176,X}</title>
<path style="fill:none;stroke:black;" d="M193,-43C206,-37 223,-27 238,-20 240,-19 242,-18 243,-17"/>
<polygon style="fill:black;stroke:black;" points="243.905,-17.6207 246,-16 243.352,-15.9605 243.905,-17.6207"/>
</g>
</g>
</svg>
