<?xml version="1.0" encoding="UTF-8" standalone="no"?>
<!DOCTYPE svg PUBLIC "-//W3C//DTD SVG 1.0//EN"
 "http://www.w3.org/TR/2001/REC-SVG-20010904/DTD/svg10.dtd" [
 <!ATTLIST svg xmlns:xlink CDATA #FIXED "http://www.w3.org/1999/xlink">
]>
<!-- Generated by Graphviz version 2.12 (Mon Dec  4 22:04:37 UTC 2006)
     For user: Bill Gates -->
<!-- Title: byz Pages: 1 -->
<svg width="2.60in" height="2.30in"
 xmlns="http://www.w3.org/2000/svg" xmlns:xlink="http://www.w3.org/1999/xlink">
<g id="graph0" class="graph" transform="scale(1.33333 1.33333) rotate(0) translate(4 162)">
<title>byz</title>
<polygon style="fill:white;stroke:white;" points="-4,4 -4,-162 184,-162 184,4 -4,4"/>
<!-- 1 -->
<g id="node1" class="node"><title>1</title>
<ellipse style="fill:none;stroke:black;" cx="89" cy="-131" rx="36" ry="27"/>
<text text-anchor="middle" x="89" y="-126" style="font-family:Nimbus Roman No9 L;font-weight:regular;font-size:9.72pt;">P1</text>
</g>
<!-- 2 -->
<g id="node3" class="node"><title>2</title>
<ellipse style="fill:none;stroke:black;" cx="36" cy="-27" rx="36" ry="27"/>
<text text-anchor="middle" x="36" y="-22" style="font-family:Nimbus Roman No9 L;font-weight:regular;font-size:9.72pt;">P2</text>
</g>
<!-- 1&#45;&gt;2 -->
<g id="edge3" class="edge"><title>1&#45;&gt;2</title>
<path style="fill:none;stroke:black;" d="M76,-106C69,-93 61,-76 53,-61"/>
<polygon style="fill:black;stroke:black;" points="56.2598,-59.7166 49,-52 49.8631,-62.5596 56.2598,-59.7166"/>
<a xlink:title="1">
</a>
<a xlink:title="1">
</a>
<text text-anchor="middle" x="71" y="-74" style="font-family:Nimbus Roman No9 L;font-weight:regular;font-size:9.72pt;">1</text>
</g>
<!-- 3 -->
<g id="node4" class="node"><title>3</title>
<ellipse style="fill:none;stroke:black;" cx="144" cy="-27" rx="36" ry="27"/>
<text text-anchor="middle" x="144" y="-29" style="font-family:Nimbus Roman No9 L;font-weight:regular;font-size:9.72pt;">P3</text>
<text text-anchor="middle" x="144" y="-15" style="font-family:Nimbus Roman No9 L;font-weight:regular;font-size:9.72pt;">(faulty)</text>
</g>
<!-- 1&#45;&gt;3 -->
<g id="edge5" class="edge"><title>1&#45;&gt;3</title>
<path style="fill:none;stroke:black;" d="M102,-106C109,-93 118,-76 126,-61"/>
<polygon style="fill:black;stroke:black;" points="129.203,-62.4414 131,-52 123.084,-59.0418 129.203,-62.4414"/>
<a xlink:title="1">
</a>
<a xlink:title="1">
</a>
<text text-anchor="middle" x="123" y="-74" style="font-family:Nimbus Roman No9 L;font-weight:regular;font-size:9.72pt;">1</text>
</g>
<!-- 2&#45;&gt;3 -->
<g id="edge7" class="edge"><title>2&#45;&gt;3</title>
<path style="fill:none;stroke:black;" d="M82,-27C91,-27 99,-27 108,-27"/>
<polygon style="fill:black;stroke:black;" points="82,-23.5001 72,-27 82,-30.5001 82,-23.5001"/>
<a xlink:title="0">
</a>
<a xlink:title="0">
</a>
<text text-anchor="middle" x="90" y="-29" style="font-family:Nimbus Roman No9 L;font-weight:regular;font-size:9.72pt;">0</text>
</g>
</g>
</svg>
