<?xml version="1.0" encoding="UTF-8" standalone="no"?>
<!DOCTYPE svg PUBLIC "-//W3C//DTD SVG 1.0//EN"
 "http://www.w3.org/TR/2001/REC-SVG-20010904/DTD/svg10.dtd" [
 <!ATTLIST svg xmlns:xlink CDATA #FIXED "http://www.w3.org/1999/xlink">
]>
<!-- Generated by Graphviz version 2.12 (Mon Dec  4 22:04:37 UTC 2006)
     For user: Bill Gates -->
<!-- Title: byz Pages: 1 -->
<svg width="2.85in" height="1.27in"
 xmlns="http://www.w3.org/2000/svg" xmlns:xlink="http://www.w3.org/1999/xlink">
<g id="graph0" class="graph" transform="scale(1.33333 1.33333) rotate(0) translate(4 88)">
<title>byz</title>
<polygon style="fill:white;stroke:white;" points="-4,4 -4,-88 202,-88 202,4 -4,4"/>
<!-- General -->
<g id="node1" class="node"><title>General</title>
<text text-anchor="middle" x="21" y="-39" style="font-family:Nimbus Roman No9 L;font-weight:regular;font-size:6.48pt;">General</text>
</g>
<!-- {1,1,?} -->
<g id="node3" class="node"><title>{1,1,?}</title>
<text text-anchor="middle" x="98" y="-39" style="font-family:Nimbus Roman No9 L;font-weight:regular;font-size:6.48pt;">{1,1,?}</text>
</g>
<!-- General&#45;&gt;{1,1,?} -->
<g id="edge2" class="edge"><title>General&#45;&gt;{1,1,?}</title>
<path style="fill:none;stroke:black;stroke-dasharray:1,5;" d="M42,-42C52,-42 65,-42 75,-42"/>
<polygon style="fill:black;stroke:black;" points="75.5,-42.8751 78,-42 75.5,-41.1251 75.5,-42.8751"/>
</g>
<!-- 12 -->
<g id="node5" class="node"><title>12</title>
<text text-anchor="middle" x="176" y="-73" style="font-family:Nimbus Roman No9 L;font-weight:regular;font-size:6.48pt;">{1,12,?}</text>
</g>
<!-- {1,1,?}&#45;&gt;12 -->
<g id="edge4" class="edge"><title>{1,1,?}&#45;&gt;12</title>
<path style="fill:none;stroke:black;" d="M116,-50C128,-55 143,-62 156,-67"/>
<polygon style="fill:black;stroke:black;" points="155.373,-67.6645 158,-68 156.155,-66.0993 155.373,-67.6645"/>
</g>
<!-- 13 -->
<g id="node7" class="node"><title>13</title>
<text text-anchor="middle" x="176" y="-56" style="font-family:Nimbus Roman No9 L;font-weight:regular;font-size:6.48pt;">{1,13,?}</text>
</g>
<!-- {1,1,?}&#45;&gt;13 -->
<g id="edge6" class="edge"><title>{1,1,?}&#45;&gt;13</title>
<path style="fill:none;stroke:black;" d="M118,-46C128,-48 141,-51 151,-53"/>
<polygon style="fill:black;stroke:black;" points="151.352,-54.0395 154,-54 151.905,-52.3793 151.352,-54.0395"/>
</g>
<!-- 14 -->
<g id="node9" class="node"><title>14</title>
<text text-anchor="middle" x="176" y="-39" style="font-family:Nimbus Roman No9 L;font-weight:regular;font-size:6.48pt;">{1,14,?}</text>
</g>
<!-- {1,1,?}&#45;&gt;14 -->
<g id="edge8" class="edge"><title>{1,1,?}&#45;&gt;14</title>
<path style="fill:none;stroke:black;" d="M118,-42C128,-42 141,-42 151,-42"/>
<polygon style="fill:black;stroke:black;" points="151.5,-42.8751 154,-42 151.5,-41.1251 151.5,-42.8751"/>
</g>
<!-- 15 -->
<g id="node11" class="node"><title>15</title>
<text text-anchor="middle" x="176" y="-22" style="font-family:Nimbus Roman No9 L;font-weight:regular;font-size:6.48pt;">{0,15,?}</text>
</g>
<!-- {1,1,?}&#45;&gt;15 -->
<g id="edge10" class="edge"><title>{1,1,?}&#45;&gt;15</title>
<path style="fill:none;stroke:black;" d="M118,-38C128,-36 141,-33 151,-31"/>
<polygon style="fill:black;stroke:black;" points="151.905,-31.6207 154,-30 151.352,-29.9605 151.905,-31.6207"/>
</g>
<!-- 16 -->
<g id="node13" class="node"><title>16</title>
<text text-anchor="middle" x="176" y="-5" style="font-family:Nimbus Roman No9 L;font-weight:regular;font-size:6.48pt;">{0,16,?}</text>
</g>
<!-- {1,1,?}&#45;&gt;16 -->
<g id="edge12" class="edge"><title>{1,1,?}&#45;&gt;16</title>
<path style="fill:none;stroke:black;" d="M116,-34C128,-29 143,-22 156,-17"/>
<polygon style="fill:black;stroke:black;" points="156.155,-17.9007 158,-16 155.373,-16.3355 156.155,-17.9007"/>
</g>
</g>
</svg>
