<?xml version="1.0" encoding="UTF-8" standalone="no"?>
<!DOCTYPE svg PUBLIC "-//W3C//DTD SVG 1.0//EN"
 "http://www.w3.org/TR/2001/REC-SVG-20010904/DTD/svg10.dtd" [
 <!ATTLIST svg xmlns:xlink CDATA #FIXED "http://www.w3.org/1999/xlink">
]>
<!-- Generated by Graphviz version 2.12 (Mon Dec  4 22:04:37 UTC 2006)
     For user: Bill Gates -->
<!-- Title: byz Pages: 1 -->
<svg width="4.08in" height="7.18in"
 xmlns="http://www.w3.org/2000/svg" xmlns:xlink="http://www.w3.org/1999/xlink">
<g id="graph0" class="graph" transform="scale(1.33333 1.33333) rotate(0) translate(4 513)">
<title>byz</title>
<polygon style="fill:white;stroke:white;" points="-4,4 -4,-513 290,-513 290,4 -4,4"/>
<!-- General -->
<g id="node1" class="node"><title>General</title>
<text text-anchor="middle" x="21" y="-251" style="font-family:Nimbus Roman No9 L;font-weight:regular;font-size:6.48pt;">General</text>
</g>
<!-- {0,1,?} -->
<g id="node3" class="node"><title>{0,1,?}</title>
<text text-anchor="middle" x="98" y="-251" style="font-family:Nimbus Roman No9 L;font-weight:regular;font-size:6.48pt;">{0,1,?}</text>
</g>
<!-- General&#45;&gt;{0,1,?} -->
<g id="edge2" class="edge"><title>General&#45;&gt;{0,1,?}</title>
<path style="fill:none;stroke:black;stroke-dasharray:1,5;" d="M42,-254C52,-254 65,-254 75,-254"/>
<polygon style="fill:black;stroke:black;" points="75.5,-254.875 78,-254 75.5,-253.125 75.5,-254.875"/>
</g>
<!-- {0,12,?} -->
<g id="node5" class="node"><title>{0,12,?}</title>
<text text-anchor="middle" x="177" y="-455" style="font-family:Nimbus Roman No9 L;font-weight:regular;font-size:6.48pt;">{0,12,?}</text>
</g>
<!-- {0,1,?}&#45;&gt;{0,12,?} -->
<g id="edge4" class="edge"><title>{0,1,?}&#45;&gt;{0,12,?}</title>
<path style="fill:none;stroke:black;" d="M101,-262C114,-294 159,-411 173,-448"/>
<polygon style="fill:black;stroke:black;" points="172.099,-448.155 174,-450 173.665,-447.373 172.099,-448.155"/>
</g>
<!-- {0,13,?} -->
<g id="node17" class="node"><title>{0,13,?}</title>
<text text-anchor="middle" x="177" y="-370" style="font-family:Nimbus Roman No9 L;font-weight:regular;font-size:6.48pt;">{0,13,?}</text>
</g>
<!-- {0,1,?}&#45;&gt;{0,13,?} -->
<g id="edge16" class="edge"><title>{0,1,?}&#45;&gt;{0,13,?}</title>
<path style="fill:none;stroke:black;" d="M103,-262C118,-283 155,-339 171,-363"/>
<polygon style="fill:black;stroke:black;" points="170.099,-363.155 172,-365 171.665,-362.373 170.099,-363.155"/>
</g>
<!-- {0,14,?} -->
<g id="node29" class="node"><title>{0,14,?}</title>
<text text-anchor="middle" x="177" y="-285" style="font-family:Nimbus Roman No9 L;font-weight:regular;font-size:6.48pt;">{0,14,?}</text>
</g>
<!-- {0,1,?}&#45;&gt;{0,14,?} -->
<g id="edge28" class="edge"><title>{0,1,?}&#45;&gt;{0,14,?}</title>
<path style="fill:none;stroke:black;" d="M117,-262C128,-267 144,-274 156,-279"/>
<polygon style="fill:black;stroke:black;" points="155.373,-279.665 158,-280 156.155,-278.099 155.373,-279.665"/>
</g>
<!-- {0,15,?} -->
<g id="node41" class="node"><title>{0,15,?}</title>
<text text-anchor="middle" x="177" y="-217" style="font-family:Nimbus Roman No9 L;font-weight:regular;font-size:6.48pt;">{0,15,?}</text>
</g>
<!-- {0,1,?}&#45;&gt;{0,15,?} -->
<g id="edge40" class="edge"><title>{0,1,?}&#45;&gt;{0,15,?}</title>
<path style="fill:none;stroke:black;" d="M117,-246C128,-241 144,-234 156,-229"/>
<polygon style="fill:black;stroke:black;" points="156.155,-229.901 158,-228 155.373,-228.335 156.155,-229.901"/>
</g>
<!-- {X,16,?} -->
<g id="node53" class="node"><title>{X,16,?}</title>
<text text-anchor="middle" x="177" y="-133" style="font-family:Nimbus Roman No9 L;font-weight:regular;font-size:6.48pt;">{X,16,?}</text>
</g>
<!-- {0,1,?}&#45;&gt;{X,16,?} -->
<g id="edge52" class="edge"><title>{0,1,?}&#45;&gt;{X,16,?}</title>
<path style="fill:none;stroke:black;" d="M103,-246C118,-225 155,-170 171,-146"/>
<polygon style="fill:black;stroke:black;" points="171.665,-146.627 172,-144 170.099,-145.845 171.665,-146.627"/>
</g>
<!-- {X,17,?} -->
<g id="node65" class="node"><title>{X,17,?}</title>
<text text-anchor="middle" x="177" y="-48" style="font-family:Nimbus Roman No9 L;font-weight:regular;font-size:6.48pt;">{X,17,?}</text>
</g>
<!-- {0,1,?}&#45;&gt;{X,17,?} -->
<g id="edge64" class="edge"><title>{0,1,?}&#45;&gt;{X,17,?}</title>
<path style="fill:none;stroke:black;" d="M101,-246C114,-214 159,-98 173,-61"/>
<polygon style="fill:black;stroke:black;" points="173.665,-61.6274 174,-59 172.099,-60.8447 173.665,-61.6274"/>
</g>
<!-- {0,123,?} -->
<g id="node7" class="node"><title>{0,123,?}</title>
<text text-anchor="middle" x="261" y="-498" style="font-family:Nimbus Roman No9 L;font-weight:regular;font-size:6.48pt;">{0,123,?}</text>
</g>
<!-- {0,12,?}&#45;&gt;{0,123,?} -->
<g id="edge6" class="edge"><title>{0,12,?}&#45;&gt;{0,123,?}</title>
<path style="fill:none;stroke:black;" d="M193,-466C205,-472 221,-481 236,-489 238,-490 240,-491 242,-492"/>
<polygon style="fill:black;stroke:black;" points="242.352,-493.039 245,-493 242.905,-491.379 242.352,-493.039"/>
</g>
<!-- {0,124,?} -->
<g id="node9" class="node"><title>{0,124,?}</title>
<text text-anchor="middle" x="261" y="-481" style="font-family:Nimbus Roman No9 L;font-weight:regular;font-size:6.48pt;">{0,124,?}</text>
</g>
<!-- {0,12,?}&#45;&gt;{0,124,?} -->
<g id="edge8" class="edge"><title>{0,12,?}&#45;&gt;{0,124,?}</title>
<path style="fill:none;stroke:black;" d="M199,-465C210,-469 223,-472 234,-476"/>
<polygon style="fill:black;stroke:black;" points="234.352,-477.039 237,-477 234.905,-475.379 234.352,-477.039"/>
</g>
<!-- {0,125,?} -->
<g id="node11" class="node"><title>{0,125,?}</title>
<text text-anchor="middle" x="261" y="-464" style="font-family:Nimbus Roman No9 L;font-weight:regular;font-size:6.48pt;">{0,125,?}</text>
</g>
<!-- {0,12,?}&#45;&gt;{0,125,?} -->
<g id="edge10" class="edge"><title>{0,12,?}&#45;&gt;{0,125,?}</title>
<path style="fill:none;stroke:black;" d="M199,-460C210,-461 223,-463 234,-464"/>
<polygon style="fill:black;stroke:black;" points="234.5,-464.875 237,-464 234.5,-463.125 234.5,-464.875"/>
</g>
<!-- {X,126,?} -->
<g id="node13" class="node"><title>{X,126,?}</title>
<text text-anchor="middle" x="261" y="-447" style="font-family:Nimbus Roman No9 L;font-weight:regular;font-size:6.48pt;">{X,126,?}</text>
</g>
<!-- {0,12,?}&#45;&gt;{X,126,?} -->
<g id="edge12" class="edge"><title>{0,12,?}&#45;&gt;{X,126,?}</title>
<path style="fill:none;stroke:black;" d="M199,-456C209,-455 222,-454 233,-453"/>
<polygon style="fill:black;stroke:black;" points="233.5,-453.875 236,-453 233.5,-452.125 233.5,-453.875"/>
</g>
<!-- {X,127,?} -->
<g id="node15" class="node"><title>{X,127,?}</title>
<text text-anchor="middle" x="261" y="-430" style="font-family:Nimbus Roman No9 L;font-weight:regular;font-size:6.48pt;">{X,127,?}</text>
</g>
<!-- {0,12,?}&#45;&gt;{X,127,?} -->
<g id="edge14" class="edge"><title>{0,12,?}&#45;&gt;{X,127,?}</title>
<path style="fill:none;stroke:black;" d="M199,-451C209,-448 222,-445 233,-441"/>
<polygon style="fill:black;stroke:black;" points="233.905,-441.621 236,-440 233.352,-439.961 233.905,-441.621"/>
</g>
<!-- {0,132,?} -->
<g id="node19" class="node"><title>{0,132,?}</title>
<text text-anchor="middle" x="261" y="-413" style="font-family:Nimbus Roman No9 L;font-weight:regular;font-size:6.48pt;">{0,132,?}</text>
</g>
<!-- {0,13,?}&#45;&gt;{0,132,?} -->
<g id="edge18" class="edge"><title>{0,13,?}&#45;&gt;{0,132,?}</title>
<path style="fill:none;stroke:black;" d="M193,-381C205,-387 221,-396 236,-404 238,-405 240,-406 242,-407"/>
<polygon style="fill:black;stroke:black;" points="242.352,-408.039 245,-408 242.905,-406.379 242.352,-408.039"/>
</g>
<!-- {0,134,?} -->
<g id="node21" class="node"><title>{0,134,?}</title>
<text text-anchor="middle" x="261" y="-396" style="font-family:Nimbus Roman No9 L;font-weight:regular;font-size:6.48pt;">{0,134,?}</text>
</g>
<!-- {0,13,?}&#45;&gt;{0,134,?} -->
<g id="edge20" class="edge"><title>{0,13,?}&#45;&gt;{0,134,?}</title>
<path style="fill:none;stroke:black;" d="M199,-380C210,-384 223,-387 234,-391"/>
<polygon style="fill:black;stroke:black;" points="234.352,-392.039 237,-392 234.905,-390.379 234.352,-392.039"/>
</g>
<!-- {0,135,?} -->
<g id="node23" class="node"><title>{0,135,?}</title>
<text text-anchor="middle" x="261" y="-379" style="font-family:Nimbus Roman No9 L;font-weight:regular;font-size:6.48pt;">{0,135,?}</text>
</g>
<!-- {0,13,?}&#45;&gt;{0,135,?} -->
<g id="edge22" class="edge"><title>{0,13,?}&#45;&gt;{0,135,?}</title>
<path style="fill:none;stroke:black;" d="M199,-375C210,-376 223,-378 234,-379"/>
<polygon style="fill:black;stroke:black;" points="234.5,-379.875 237,-379 234.5,-378.125 234.5,-379.875"/>
</g>
<!-- {X,136,?} -->
<g id="node25" class="node"><title>{X,136,?}</title>
<text text-anchor="middle" x="261" y="-362" style="font-family:Nimbus Roman No9 L;font-weight:regular;font-size:6.48pt;">{X,136,?}</text>
</g>
<!-- {0,13,?}&#45;&gt;{X,136,?} -->
<g id="edge24" class="edge"><title>{0,13,?}&#45;&gt;{X,136,?}</title>
<path style="fill:none;stroke:black;" d="M199,-371C209,-370 222,-369 233,-368"/>
<polygon style="fill:black;stroke:black;" points="233.5,-368.875 236,-368 233.5,-367.125 233.5,-368.875"/>
</g>
<!-- {X,137,?} -->
<g id="node27" class="node"><title>{X,137,?}</title>
<text text-anchor="middle" x="261" y="-345" style="font-family:Nimbus Roman No9 L;font-weight:regular;font-size:6.48pt;">{X,137,?}</text>
</g>
<!-- {0,13,?}&#45;&gt;{X,137,?} -->
<g id="edge26" class="edge"><title>{0,13,?}&#45;&gt;{X,137,?}</title>
<path style="fill:none;stroke:black;" d="M199,-366C209,-363 222,-360 233,-356"/>
<polygon style="fill:black;stroke:black;" points="233.905,-356.621 236,-355 233.352,-354.961 233.905,-356.621"/>
</g>
<!-- {0,142,?} -->
<g id="node31" class="node"><title>{0,142,?}</title>
<text text-anchor="middle" x="261" y="-328" style="font-family:Nimbus Roman No9 L;font-weight:regular;font-size:6.48pt;">{0,142,?}</text>
</g>
<!-- {0,14,?}&#45;&gt;{0,142,?} -->
<g id="edge30" class="edge"><title>{0,14,?}&#45;&gt;{0,142,?}</title>
<path style="fill:none;stroke:black;" d="M193,-296C205,-302 221,-311 236,-319 238,-320 240,-321 242,-322"/>
<polygon style="fill:black;stroke:black;" points="242.352,-323.039 245,-323 242.905,-321.379 242.352,-323.039"/>
</g>
<!-- {0,143,?} -->
<g id="node33" class="node"><title>{0,143,?}</title>
<text text-anchor="middle" x="261" y="-311" style="font-family:Nimbus Roman No9 L;font-weight:regular;font-size:6.48pt;">{0,143,?}</text>
</g>
<!-- {0,14,?}&#45;&gt;{0,143,?} -->
<g id="edge32" class="edge"><title>{0,14,?}&#45;&gt;{0,143,?}</title>
<path style="fill:none;stroke:black;" d="M199,-295C210,-299 223,-302 234,-306"/>
<polygon style="fill:black;stroke:black;" points="234.352,-307.039 237,-307 234.905,-305.379 234.352,-307.039"/>
</g>
<!-- {0,145,?} -->
<g id="node35" class="node"><title>{0,145,?}</title>
<text text-anchor="middle" x="261" y="-294" style="font-family:Nimbus Roman No9 L;font-weight:regular;font-size:6.48pt;">{0,145,?}</text>
</g>
<!-- {0,14,?}&#45;&gt;{0,145,?} -->
<g id="edge34" class="edge"><title>{0,14,?}&#45;&gt;{0,145,?}</title>
<path style="fill:none;stroke:black;" d="M199,-290C210,-291 223,-293 234,-294"/>
<polygon style="fill:black;stroke:black;" points="234.5,-294.875 237,-294 234.5,-293.125 234.5,-294.875"/>
</g>
<!-- {X,146,?} -->
<g id="node37" class="node"><title>{X,146,?}</title>
<text text-anchor="middle" x="261" y="-277" style="font-family:Nimbus Roman No9 L;font-weight:regular;font-size:6.48pt;">{X,146,?}</text>
</g>
<!-- {0,14,?}&#45;&gt;{X,146,?} -->
<g id="edge36" class="edge"><title>{0,14,?}&#45;&gt;{X,146,?}</title>
<path style="fill:none;stroke:black;" d="M199,-286C209,-285 222,-284 233,-283"/>
<polygon style="fill:black;stroke:black;" points="233.5,-283.875 236,-283 233.5,-282.125 233.5,-283.875"/>
</g>
<!-- {X,147,?} -->
<g id="node39" class="node"><title>{X,147,?}</title>
<text text-anchor="middle" x="261" y="-260" style="font-family:Nimbus Roman No9 L;font-weight:regular;font-size:6.48pt;">{X,147,?}</text>
</g>
<!-- {0,14,?}&#45;&gt;{X,147,?} -->
<g id="edge38" class="edge"><title>{0,14,?}&#45;&gt;{X,147,?}</title>
<path style="fill:none;stroke:black;" d="M199,-281C209,-278 222,-275 233,-271"/>
<polygon style="fill:black;stroke:black;" points="233.905,-271.621 236,-270 233.352,-269.961 233.905,-271.621"/>
</g>
<!-- {0,152,?} -->
<g id="node43" class="node"><title>{0,152,?}</title>
<text text-anchor="middle" x="261" y="-243" style="font-family:Nimbus Roman No9 L;font-weight:regular;font-size:6.48pt;">{0,152,?}</text>
</g>
<!-- {0,15,?}&#45;&gt;{0,152,?} -->
<g id="edge42" class="edge"><title>{0,15,?}&#45;&gt;{0,152,?}</title>
<path style="fill:none;stroke:black;" d="M199,-227C210,-231 223,-234 234,-238"/>
<polygon style="fill:black;stroke:black;" points="234.352,-239.039 237,-239 234.905,-237.379 234.352,-239.039"/>
</g>
<!-- {0,153,?} -->
<g id="node45" class="node"><title>{0,153,?}</title>
<text text-anchor="middle" x="261" y="-226" style="font-family:Nimbus Roman No9 L;font-weight:regular;font-size:6.48pt;">{0,153,?}</text>
</g>
<!-- {0,15,?}&#45;&gt;{0,153,?} -->
<g id="edge44" class="edge"><title>{0,15,?}&#45;&gt;{0,153,?}</title>
<path style="fill:none;stroke:black;" d="M199,-222C210,-223 223,-225 234,-226"/>
<polygon style="fill:black;stroke:black;" points="234.5,-226.875 237,-226 234.5,-225.125 234.5,-226.875"/>
</g>
<!-- {0,154,?} -->
<g id="node47" class="node"><title>{0,154,?}</title>
<text text-anchor="middle" x="261" y="-209" style="font-family:Nimbus Roman No9 L;font-weight:regular;font-size:6.48pt;">{0,154,?}</text>
</g>
<!-- {0,15,?}&#45;&gt;{0,154,?} -->
<g id="edge46" class="edge"><title>{0,15,?}&#45;&gt;{0,154,?}</title>
<path style="fill:none;stroke:black;" d="M199,-218C210,-217 223,-216 234,-215"/>
<polygon style="fill:black;stroke:black;" points="234.5,-215.875 237,-215 234.5,-214.125 234.5,-215.875"/>
</g>
<!-- {X,156,?} -->
<g id="node49" class="node"><title>{X,156,?}</title>
<text text-anchor="middle" x="261" y="-192" style="font-family:Nimbus Roman No9 L;font-weight:regular;font-size:6.48pt;">{X,156,?}</text>
</g>
<!-- {0,15,?}&#45;&gt;{X,156,?} -->
<g id="edge48" class="edge"><title>{0,15,?}&#45;&gt;{X,156,?}</title>
<path style="fill:none;stroke:black;" d="M199,-213C209,-210 222,-207 233,-203"/>
<polygon style="fill:black;stroke:black;" points="233.905,-203.621 236,-202 233.352,-201.961 233.905,-203.621"/>
</g>
<!-- {X,157,?} -->
<g id="node51" class="node"><title>{X,157,?}</title>
<text text-anchor="middle" x="261" y="-175" style="font-family:Nimbus Roman No9 L;font-weight:regular;font-size:6.48pt;">{X,157,?}</text>
</g>
<!-- {0,15,?}&#45;&gt;{X,157,?} -->
<g id="edge50" class="edge"><title>{0,15,?}&#45;&gt;{X,157,?}</title>
<path style="fill:none;stroke:black;" d="M193,-212C205,-206 221,-197 236,-190 238,-189 240,-188 241,-187"/>
<polygon style="fill:black;stroke:black;" points="241.905,-187.621 244,-186 241.352,-185.961 241.905,-187.621"/>
</g>
<!-- {X,162,?} -->
<g id="node55" class="node"><title>{X,162,?}</title>
<text text-anchor="middle" x="261" y="-158" style="font-family:Nimbus Roman No9 L;font-weight:regular;font-size:6.48pt;">{X,162,?}</text>
</g>
<!-- {X,16,?}&#45;&gt;{X,162,?} -->
<g id="edge54" class="edge"><title>{X,16,?}&#45;&gt;{X,162,?}</title>
<path style="fill:none;stroke:black;" d="M200,-143C210,-146 222,-149 233,-153"/>
<polygon style="fill:black;stroke:black;" points="233.352,-154.039 236,-154 233.905,-152.379 233.352,-154.039"/>
</g>
<!-- {X,163,?} -->
<g id="node57" class="node"><title>{X,163,?}</title>
<text text-anchor="middle" x="261" y="-141" style="font-family:Nimbus Roman No9 L;font-weight:regular;font-size:6.48pt;">{X,163,?}</text>
</g>
<!-- {X,16,?}&#45;&gt;{X,163,?} -->
<g id="edge56" class="edge"><title>{X,16,?}&#45;&gt;{X,163,?}</title>
<path style="fill:none;stroke:black;" d="M200,-138C210,-139 222,-141 233,-142"/>
<polygon style="fill:black;stroke:black;" points="233.5,-142.875 236,-142 233.5,-141.125 233.5,-142.875"/>
</g>
<!-- {X,164,?} -->
<g id="node59" class="node"><title>{X,164,?}</title>
<text text-anchor="middle" x="261" y="-124" style="font-family:Nimbus Roman No9 L;font-weight:regular;font-size:6.48pt;">{X,164,?}</text>
</g>
<!-- {X,16,?}&#45;&gt;{X,164,?} -->
<g id="edge58" class="edge"><title>{X,16,?}&#45;&gt;{X,164,?}</title>
<path style="fill:none;stroke:black;" d="M200,-134C210,-133 222,-131 233,-130"/>
<polygon style="fill:black;stroke:black;" points="233.5,-130.875 236,-130 233.5,-129.125 233.5,-130.875"/>
</g>
<!-- {X,165,?} -->
<g id="node61" class="node"><title>{X,165,?}</title>
<text text-anchor="middle" x="261" y="-107" style="font-family:Nimbus Roman No9 L;font-weight:regular;font-size:6.48pt;">{X,165,?}</text>
</g>
<!-- {X,16,?}&#45;&gt;{X,165,?} -->
<g id="edge60" class="edge"><title>{X,16,?}&#45;&gt;{X,165,?}</title>
<path style="fill:none;stroke:black;" d="M200,-129C210,-125 222,-122 233,-119"/>
<polygon style="fill:black;stroke:black;" points="233.905,-119.621 236,-118 233.352,-117.961 233.905,-119.621"/>
</g>
<!-- {X,167,?} -->
<g id="node63" class="node"><title>{X,167,?}</title>
<text text-anchor="middle" x="261" y="-90" style="font-family:Nimbus Roman No9 L;font-weight:regular;font-size:6.48pt;">{X,167,?}</text>
</g>
<!-- {X,16,?}&#45;&gt;{X,167,?} -->
<g id="edge62" class="edge"><title>{X,16,?}&#45;&gt;{X,167,?}</title>
<path style="fill:none;stroke:black;" d="M192,-128C204,-121 221,-112 236,-105 238,-104 240,-103 241,-102"/>
<polygon style="fill:black;stroke:black;" points="241.905,-102.621 244,-101 241.352,-100.961 241.905,-102.621"/>
</g>
<!-- {X,172,?} -->
<g id="node67" class="node"><title>{X,172,?}</title>
<text text-anchor="middle" x="261" y="-73" style="font-family:Nimbus Roman No9 L;font-weight:regular;font-size:6.48pt;">{X,172,?}</text>
</g>
<!-- {X,17,?}&#45;&gt;{X,172,?} -->
<g id="edge66" class="edge"><title>{X,17,?}&#45;&gt;{X,172,?}</title>
<path style="fill:none;stroke:black;" d="M200,-58C210,-61 222,-64 233,-68"/>
<polygon style="fill:black;stroke:black;" points="233.352,-69.0395 236,-69 233.905,-67.3793 233.352,-69.0395"/>
</g>
<!-- {X,173,?} -->
<g id="node69" class="node"><title>{X,173,?}</title>
<text text-anchor="middle" x="261" y="-56" style="font-family:Nimbus Roman No9 L;font-weight:regular;font-size:6.48pt;">{X,173,?}</text>
</g>
<!-- {X,17,?}&#45;&gt;{X,173,?} -->
<g id="edge68" class="edge"><title>{X,17,?}&#45;&gt;{X,173,?}</title>
<path style="fill:none;stroke:black;" d="M200,-53C210,-54 222,-56 233,-57"/>
<polygon style="fill:black;stroke:black;" points="233.5,-57.8751 236,-57 233.5,-56.1251 233.5,-57.8751"/>
</g>
<!-- {X,174,?} -->
<g id="node71" class="node"><title>{X,174,?}</title>
<text text-anchor="middle" x="261" y="-39" style="font-family:Nimbus Roman No9 L;font-weight:regular;font-size:6.48pt;">{X,174,?}</text>
</g>
<!-- {X,17,?}&#45;&gt;{X,174,?} -->
<g id="edge70" class="edge"><title>{X,17,?}&#45;&gt;{X,174,?}</title>
<path style="fill:none;stroke:black;" d="M200,-49C210,-48 222,-46 233,-45"/>
<polygon style="fill:black;stroke:black;" points="233.5,-45.8751 236,-45 233.5,-44.1251 233.5,-45.8751"/>
</g>
<!-- {X,175,?} -->
<g id="node73" class="node"><title>{X,175,?}</title>
<text text-anchor="middle" x="261" y="-22" style="font-family:Nimbus Roman No9 L;font-weight:regular;font-size:6.48pt;">{X,175,?}</text>
</g>
<!-- {X,17,?}&#45;&gt;{X,175,?} -->
<g id="edge72" class="edge"><title>{X,17,?}&#45;&gt;{X,175,?}</title>
<path style="fill:none;stroke:black;" d="M200,-44C210,-40 222,-37 233,-34"/>
<polygon style="fill:black;stroke:black;" points="233.905,-34.6207 236,-33 233.352,-32.9605 233.905,-34.6207"/>
</g>
<!-- {X,176,?} -->
<g id="node75" class="node"><title>{X,176,?}</title>
<text text-anchor="middle" x="261" y="-5" style="font-family:Nimbus Roman No9 L;font-weight:regular;font-size:6.48pt;">{X,176,?}</text>
</g>
<!-- {X,17,?}&#45;&gt;{X,176,?} -->
<g id="edge74" class="edge"><title>{X,17,?}&#45;&gt;{X,176,?}</title>
<path style="fill:none;stroke:black;" d="M192,-43C204,-36 221,-27 236,-20 238,-19 240,-18 241,-17"/>
<polygon style="fill:black;stroke:black;" points="241.905,-17.6207 244,-16 241.352,-15.9605 241.905,-17.6207"/>
</g>
</g>
</svg>
